<?xml version="1.0" standalone="no"?>
<!DOCTYPE svg PUBLIC "-//W3C//DTD SVG 20010904//EN"
 "http://www.w3.org/TR/2001/REC-SVG-20010904/DTD/svg10.dtd">
<svg version="1.0" xmlns="http://www.w3.org/2000/svg"
 width="334.000000pt" height="334.000000pt" viewBox="0 0 334.000000 334.000000"
 preserveAspectRatio="xMidYMid meet">
<metadata>
Created by potrace 1.14, written by Peter Selinger 2001-2017
</metadata>
<g transform="translate(0.000000,334.000000) scale(0.100000,-0.100000)"
fill="#000000" stroke="none">
<path d="M1166 3321 c-14 -10 -24 -20 -20 -23 3 -3 -1 -6 -8 -5 -31 2 -74 -25
-85 -53 -6 -16 -22 -34 -36 -39 -26 -10 -45 -37 -101 -145 -31 -59 -36 -78
-34 -125 1 -31 -4 -67 -11 -80 -10 -18 -14 -77 -14 -210 -1 -152 3 -199 18
-259 16 -61 24 -76 47 -88 29 -15 35 -28 17 -39 -5 -4 -21 5 -35 20 -22 24
-24 25 -24 6 0 -31 67 -101 96 -101 13 0 24 -5 24 -11 0 -8 19 -10 60 -6 l61
5 -5 -36 c-3 -21 -3 -29 0 -19 3 9 10 17 15 17 16 0 10 -32 -8 -46 -22 -16 -1
-19 28 -4 15 8 19 7 19 -4 0 -8 -9 -18 -20 -21 -11 -4 -18 -11 -15 -16 9 -13
21 -11 40 7 20 21 24 17 31 -37 4 -24 11 -47 16 -50 6 -4 7 -41 3 -98 -9 -113
7 -123 24 -16 12 74 8 128 -11 152 -5 7 -7 16 -4 21 3 6 -1 29 -9 52 -21 60
-20 100 3 100 21 0 42 38 42 74 0 13 9 54 21 92 14 46 19 80 15 107 -5 29 -1
51 15 83 11 24 24 44 28 44 4 0 13 33 20 73 20 117 42 201 58 219 26 29 69 32
104 7 21 -15 54 -24 103 -30 92 -9 252 -64 395 -136 146 -72 144 -68 143 -296
0 -123 3 -166 11 -158 6 6 21 11 34 11 14 0 29 11 40 28 9 15 18 29 20 31 1 2
9 -1 16 -8 12 -9 19 -5 39 21 38 51 41 58 28 73 -6 8 -8 20 -4 26 5 9 2 10
-10 6 -10 -4 -15 -3 -11 3 3 6 13 10 21 10 8 0 14 9 14 19 0 12 11 23 30 29
37 13 43 36 31 132 -7 63 -6 78 8 94 11 13 17 40 18 95 3 142 -18 191 -137
311 -50 49 -90 95 -90 100 0 5 -11 12 -25 16 -14 3 -43 26 -64 50 l-39 45
-133 -2 c-85 0 -139 -5 -148 -12 -12 -9 -13 -9 -7 0 6 10 -59 13 -307 12 -281
0 -317 -2 -341 -18z m374 -145 c0 -12 -5 -7 -19 24 -11 24 -11 24 3 6 9 -11
16 -24 16 -30z m491 -37 c-5 -13 -10 -19 -10 -12 -1 15 10 45 15 40 3 -2 0
-15 -5 -28z m-484 -1 c-3 -8 -6 -5 -6 6 -1 11 2 17 5 13 3 -3 4 -12 1 -19z
m514 -5 c-12 -20 -14 -14 -5 12 4 9 9 14 11 11 3 -2 0 -13 -6 -23z m-551 7 c0
-5 -2 -10 -4 -10 -3 0 -8 5 -11 10 -3 6 -1 10 4 10 6 0 11 -4 11 -10z m520
-160 c6 -11 8 -20 6 -20 -3 0 -10 9 -16 20 -6 11 -8 20 -6 20 3 0 10 -9 16
-20z m-49 -77 c-12 -20 -14 -14 -5 12 4 9 9 14 11 11 3 -2 0 -13 -6 -23z m84
-13 c-10 -11 -22 -20 -28 -20 -5 0 1 9 14 20 31 25 37 25 14 0z m266 -3 c-10
-9 -11 -8 -5 6 3 10 9 15 12 12 3 -3 0 -11 -7 -18z m-16 -57 c3 -6 -1 -7 -9
-4 -18 7 -21 14 -7 14 6 0 13 -4 16 -10z m-1262 -647 c-7 -2 -21 -2 -30 0 -10
3 -4 5 12 5 17 0 24 -2 18 -5z"/>
<path d="M2099 2495 c-79 -28 -163 -85 -147 -100 3 -3 36 11 73 31 43 23 83
37 106 37 30 0 36 3 32 18 -7 25 -22 28 -64 14z"/>
<path d="M1473 2465 c-30 -13 -60 -51 -49 -62 2 -3 25 3 50 12 44 17 50 17
133 0 108 -22 123 -29 123 -60 0 -32 -14 -39 -42 -21 -46 29 -109 24 -177 -15
l-54 -31 29 -19 c38 -25 68 -25 35 0 l-24 18 34 12 c27 9 34 9 41 -4 14 -24
54 -18 77 13 19 26 20 26 21 5 0 -15 7 -23 23 -25 12 -2 22 -8 22 -15 0 -15
31 -53 44 -53 5 0 12 7 15 16 9 24 26 6 27 -29 0 -18 3 -26 6 -18 3 8 0 44 -6
80 -9 51 -20 75 -47 105 -18 21 -34 42 -34 47 0 17 -83 46 -150 52 -45 4 -75
2 -97 -8z"/>
<path d="M1965 2351 c-22 -11 -34 -20 -26 -20 8 -1 11 -7 7 -18 -5 -13 0 -11
19 7 l25 24 16 -22 c19 -28 54 -29 61 -2 7 25 12 25 29 3 12 -17 13 -17 19 0
19 47 -73 64 -150 28z"/>
<path d="M1906 2333 c-6 -14 -5 -15 5 -6 7 7 10 15 7 18 -3 3 -9 -2 -12 -12z"/>
<path d="M950 2059 c-86 -63 -127 -81 -228 -96 -52 -7 -112 -23 -134 -34 -55
-28 -122 -97 -152 -157 -24 -48 -49 -158 -39 -174 11 -20 21 -3 27 48 12 106
85 212 179 260 27 14 82 29 130 36 45 6 96 17 112 24 34 14 168 111 173 125 7
17 -13 8 -68 -32z"/>
<path d="M1686 2025 c-3 -9 -6 -22 -5 -28 0 -7 5 -1 10 12 5 13 8 26 5 28 -2
2 -6 -3 -10 -12z"/>
<path d="M1690 1968 c0 -8 14 -11 78 -22 24 -4 32 -2 30 7 -5 13 -108 28 -108
15z"/>
<path d="M1705 1800 c39 -20 70 -30 99 -29 40 1 39 1 -24 18 -39 10 -64 21
-62 29 1 8 -11 12 -34 12 l-36 0 57 -30z"/>
<path d="M1740 1820 c8 -5 29 -9 45 -9 29 1 29 1 5 9 -14 4 -34 8 -45 9 -16 1
-17 -1 -5 -9z"/>
<path d="M1380 1762 c0 -29 62 -160 88 -184 15 -14 50 -38 77 -53 28 -15 42
-20 33 -12 -22 18 -23 31 -3 23 14 -5 14 -2 0 24 -20 39 -194 219 -195 202z"/>
<path d="M1532 1654 c10 -10 20 -16 22 -13 3 3 -5 11 -17 18 -21 13 -21 12 -5
-5z"/>
<path d="M1778 1563 c-10 -2 -18 -11 -18 -18 0 -9 6 -12 15 -9 29 12 14 -13
-36 -59 -38 -35 -46 -47 -32 -47 26 0 123 104 123 132 0 8 -23 9 -52 1z"/>
<path d="M530 1435 c0 -16 5 -37 10 -45 8 -11 9 -7 4 14 -11 48 10 22 51 -61
21 -43 55 -104 76 -135 39 -56 50 -86 28 -72 -8 5 -10 -1 -7 -18 4 -21 1 -24
-14 -20 -23 6 -23 -2 2 -52 21 -44 41 -186 34 -249 -2 -22 1 -47 6 -56 8 -14
9 -14 16 2 10 26 -2 246 -15 280 -6 15 -6 27 -2 27 5 0 12 13 16 29 8 35 -9
78 -63 157 -22 32 -53 86 -70 119 -16 33 -39 71 -51 85 l-20 25 -1 -30z"/>
<path d="M2715 785 l-30 -50 -2 -195 -2 -195 -45 -170 -44 -170 36 -3 c40 -4
59 13 92 83 24 50 25 65 2 65 -19 0 -49 -28 -71 -65 -11 -19 -12 -19 -6 3 65
235 67 249 68 462 2 146 6 211 15 225 11 18 12 15 7 -20 l-5 -40 11 34 c5 18
9 45 7 60 -3 24 -5 23 -33 -24z"/>
<path d="M710 497 c0 -145 -13 -187 -90 -293 -34 -46 -60 -92 -58 -102 2 -10
21 -23 49 -32 52 -17 79 -36 79 -56 0 -8 7 -14 15 -14 18 0 20 30 3 53 -7 9
-34 25 -59 35 -25 9 -47 21 -49 25 -1 5 18 37 44 72 82 112 91 145 88 333 -3
136 -22 117 -22 -21z"/>
</g>
</svg>
